<svg xmlns="http://www.w3.org/2000/svg" width="256" height="256" viewBox="0 0 100 100"><rect width="100" height="100" rx="50" fill="#ff7d00"></rect><path d="M78.85 52.80Q77.05 54.00 76.20 55.65Q75.35 57.30 75.05 60.30Q74.75 63.30 74.75 69.30L74.75 69.30Q74.75 75.30 75.45 78.00L75.45 78.00L74.55 79.30Q74.55 79.40 71.20 80.45Q67.85 81.50 62.60 82.40Q57.35 83.30 50.95 83.30L50.95 83.30Q41.85 83.30 35.10 79.50Q28.35 75.70 24.75 68.55Q21.15 61.40 21.15 51.70L21.15 51.70Q21.15 40.90 25.40 33.00Q29.65 25.10 37.70 20.90Q45.75 16.70 56.75 16.70L56.75 16.70Q60.65 16.70 65.05 17.25Q69.45 17.80 72.55 18.40Q75.65 19.00 76.55 19.20L76.55 19.20L77.25 20.50Q77.05 21.10 76.55 23.60Q76.05 26.10 75.50 30.20Q74.95 34.30 74.65 38.90L74.65 38.90L64.75 39.50Q64.85 39.10 64.95 37.65Q65.05 36.20 65.05 34.10L65.05 34.10Q65.05 29.90 62.60 28.15Q60.15 26.40 54.35 26.40L54.35 26.40Q45.35 26.40 41 31.80Q36.65 37.20 36.65 48.30L36.65 48.30Q36.65 60.60 41.05 67.25Q45.45 73.90 53.45 73.90L53.45 73.90Q56.05 73.90 58.20 73.30Q60.35 72.70 61.55 72.10Q62.75 71.50 63.05 71.30L63.05 71.30L63.05 62.00Q63.05 59.10 62.20 58.15Q61.35 57.20 58.65 57.20L58.65 57.20L53.55 57.20L52.95 56.40L54.05 49.20Q56.55 49.20 58.35 49.30L58.35 49.30L67.95 49.40Q71.05 49.40 74.15 49.20Q77.25 49.00 78.15 48.90L78.15 48.90L78.85 52.80Z" fill="#ffffff"></path></svg>